<svg width="20" height="21" viewBox="0 0 20 21" fill="none" xmlns="http://www.w3.org/2000/svg">
<path d="M8.5 18.9C8.5 19.3177 8.65804 19.7183 8.93934 20.0137C9.22064 20.3091 9.60218 20.475 10 20.475C10.3978 20.475 10.7794 20.3091 11.0607 20.0137C11.342 19.7183 11.5 19.3177 11.5 18.9V12.075H18C18.3978 12.075 18.7794 11.9091 19.0607 11.6137C19.342 11.3183 19.5 10.9177 19.5 10.5C19.5 10.0823 19.342 9.6817 19.0607 9.38633C18.7794 9.09096 18.3978 8.92502 18 8.92502H11.5V2.10002C11.5 1.68231 11.342 1.2817 11.0607 0.986331C10.7794 0.690961 10.3978 0.525024 10 0.525024C9.60218 0.525024 9.22064 0.690961 8.93934 0.986331C8.65804 1.2817 8.5 1.68231 8.5 2.10002V8.92502H2C1.60218 8.92502 1.22064 9.09096 0.93934 9.38633C0.658035 9.6817 0.5 10.0823 0.5 10.5C0.5 10.9177 0.658035 11.3183 0.93934 11.6137C1.22064 11.9091 1.60218 12.075 2 12.075H8.5V18.9Z" fill="white"/>
</svg>
