<svg width="32" height="32" viewBox="0 0 32 32" fill="none" xmlns="http://www.w3.org/2000/svg">
<path d="M15.999 29.998C25.333 29.998 29.998 23.73 29.998 15.998C29.998 8.268 25.333 2 15.998 2C6.665 2 2 8.268 2 15.999C2 23.73 6.664 29.998 15.999 29.998Z" fill="#FFB02E"/>
<path d="M5.72703 15.4341L8.77703 13.0621C9.00379 12.8858 9.26586 12.7604 9.5454 12.6945C9.82494 12.6286 10.1154 12.6237 10.397 12.6801L14.047 13.4101C14.0912 13.4191 14.1371 13.416 14.1797 13.401C14.2223 13.3861 14.26 13.3599 14.2889 13.3253C14.3179 13.2906 14.3369 13.2488 14.3439 13.2042C14.351 13.1596 14.3458 13.114 14.329 13.0721L12.917 9.54406C12.7895 9.22536 12.7462 8.87921 12.7912 8.53892C12.8362 8.19863 12.9681 7.87565 13.174 7.60106L14.96 5.22006C15.0066 5.15819 15.0343 5.08411 15.0396 5.00683C15.0449 4.92955 15.0277 4.85239 14.99 4.78472C14.9523 4.71705 14.8957 4.66178 14.8272 4.62563C14.7587 4.58947 14.6812 4.57399 14.604 4.58106L11.11 4.90006C10.7704 4.93074 10.4286 4.87407 10.1171 4.73545C9.80553 4.59684 9.5346 4.38086 9.33003 4.10806L7.96503 2.28806C7.88161 2.17686 7.76779 2.09219 7.6373 2.04427C7.50682 1.99634 7.36525 1.98721 7.22969 2.01798C7.09414 2.04875 6.97038 2.11811 6.87338 2.21767C6.77637 2.31723 6.71026 2.44275 6.68303 2.57906L6.21103 4.93806C6.14571 5.2641 6.00013 5.56872 5.78746 5.82434C5.57479 6.07996 5.30175 6.27852 4.99303 6.40206L2.46303 7.41406C2.33139 7.4668 2.2174 7.55578 2.13428 7.67067C2.05116 7.78557 2.00232 7.92168 1.99342 8.06321C1.98452 8.20474 2.01593 8.34589 2.08401 8.47029C2.15208 8.5947 2.25403 8.69725 2.37803 8.76606L4.36103 9.86806C4.69959 10.0563 4.9762 10.3388 5.15727 10.6812C5.33834 11.0236 5.41608 11.4113 5.38103 11.7971L5.08203 15.0821C5.07495 15.1597 5.09072 15.2378 5.12741 15.3066C5.1641 15.3754 5.2201 15.432 5.28853 15.4694C5.35696 15.5068 5.43482 15.5234 5.51255 15.5171C5.59028 15.5108 5.66448 15.482 5.72603 15.4341H5.72703ZM26.273 15.4341L23.223 13.0621C22.9963 12.8858 22.7342 12.7604 22.4547 12.6945C22.1751 12.6286 21.8846 12.6237 21.603 12.6801L17.953 13.4101C17.9088 13.4191 17.863 13.416 17.8204 13.401C17.7778 13.3861 17.74 13.3599 17.7111 13.3253C17.6822 13.2906 17.6632 13.2488 17.6561 13.2042C17.6491 13.1596 17.6542 13.114 17.671 13.0721L19.083 9.54406C19.2105 9.22536 19.2539 8.87921 19.2088 8.53892C19.1638 8.19863 19.032 7.87565 18.826 7.60106L17.04 5.22006C16.9934 5.15819 16.9658 5.08411 16.9605 5.00683C16.9552 4.92955 16.9724 4.85239 17.0101 4.78472C17.0478 4.71705 17.1043 4.66178 17.1728 4.62563C17.2414 4.58947 17.3189 4.57399 17.396 4.58106L20.888 4.89906C21.228 4.93009 21.5702 4.8736 21.8821 4.73496C22.194 4.59633 22.4653 4.38017 22.67 4.10706L24.034 2.28806C24.1174 2.17686 24.2313 2.09219 24.3617 2.04427C24.4922 1.99634 24.6338 1.98721 24.7694 2.01798C24.9049 2.04875 25.0287 2.11811 25.1257 2.21767C25.2227 2.31723 25.2888 2.44275 25.316 2.57906L25.788 4.93806C25.8533 5.2641 25.9989 5.56872 26.2116 5.82434C26.4243 6.07996 26.6973 6.27852 27.006 6.40206L29.536 7.41406C29.6677 7.4668 29.7817 7.55578 29.8648 7.67067C29.9479 7.78557 29.9967 7.92168 30.0056 8.06321C30.0145 8.20474 29.9831 8.34589 29.915 8.47029C29.847 8.5947 29.745 8.69725 29.621 8.76606L27.638 9.86806C27.2995 10.0563 27.0228 10.3388 26.8418 10.6812C26.6607 11.0236 26.583 11.4113 26.618 11.7971L26.917 15.0821C26.9241 15.1597 26.9083 15.2378 26.8716 15.3066C26.835 15.3754 26.779 15.432 26.7105 15.4694C26.6421 15.5068 26.5642 15.5234 26.4865 15.5171C26.4088 15.5108 26.3346 15.482 26.273 15.4341ZM16 26.0001C7.00003 26.0001 7.00003 17.0001 7.00003 17.0001H25C25 17.0001 25 26.0001 16 26.0001Z" fill="#BB1D80"/>
<path d="M8 17.5V17H24V17.5C24 17.7652 23.8946 18.0196 23.7071 18.2071C23.5196 18.3946 23.2652 18.5 23 18.5H9C8.73478 18.5 8.48043 18.3946 8.29289 18.2071C8.10536 18.0196 8 17.7652 8 17.5Z" fill="white"/>
</svg>
