<svg width="21" height="21" viewBox="0 0 21 21" fill="none" xmlns="http://www.w3.org/2000/svg">
<g clip-path="url(#clip0_42_51)">
<path d="M1 4.25C1 3.38805 1.34241 2.5614 1.9519 1.9519C2.5614 1.34241 3.38805 1 4.25 1H15.75C16.612 1 17.4386 1.34241 18.0481 1.9519C18.6576 2.5614 19 3.38805 19 4.25V9.012C18.4897 8.96771 17.9761 9.04304 17.5 9.232V4.25C17.5 3.78587 17.3156 3.34075 16.9874 3.01256C16.6592 2.68437 16.2141 2.5 15.75 2.5H4.25C3.78587 2.5 3.34075 2.68437 3.01256 3.01256C2.68437 3.34075 2.5 3.78587 2.5 4.25V15.75C2.5 16.716 3.284 17.5 4.25 17.5H9.541C9.53403 17.5256 9.52736 17.5513 9.521 17.577L9.165 19H4.25C3.38805 19 2.5614 18.6576 1.9519 18.0481C1.34241 17.4386 1 16.612 1 15.75V4.25ZM13.355 13L11.855 14.5H9.25C9.05109 14.5 8.86032 14.421 8.71967 14.2803C8.57902 14.1397 8.5 13.9489 8.5 13.75C8.5 13.5511 8.57902 13.3603 8.71967 13.2197C8.86032 13.079 9.05109 13 9.25 13H13.355ZM5.75 7.25C6.01522 7.25 6.26957 7.14464 6.45711 6.95711C6.64464 6.76957 6.75 6.51522 6.75 6.25C6.75 5.98478 6.64464 5.73043 6.45711 5.54289C6.26957 5.35536 6.01522 5.25 5.75 5.25C5.48478 5.25 5.23043 5.35536 5.04289 5.54289C4.85536 5.73043 4.75 5.98478 4.75 6.25C4.75 6.51522 4.85536 6.76957 5.04289 6.95711C5.23043 7.14464 5.48478 7.25 5.75 7.25ZM9.25 5.5C9.05109 5.5 8.86032 5.57902 8.71967 5.71967C8.57902 5.86032 8.5 6.05109 8.5 6.25C8.5 6.44891 8.57902 6.63968 8.71967 6.78033C8.86032 6.92098 9.05109 7 9.25 7H14.75C14.9489 7 15.1397 6.92098 15.2803 6.78033C15.421 6.63968 15.5 6.44891 15.5 6.25C15.5 6.05109 15.421 5.86032 15.2803 5.71967C15.1397 5.57902 14.9489 5.5 14.75 5.5H9.25ZM8.5 10C8.5 9.80109 8.57902 9.61032 8.71967 9.46967C8.86032 9.32902 9.05109 9.25 9.25 9.25H14.75C14.9489 9.25 15.1397 9.32902 15.2803 9.46967C15.421 9.61032 15.5 9.80109 15.5 10C15.5 10.1989 15.421 10.3897 15.2803 10.5303C15.1397 10.671 14.9489 10.75 14.75 10.75H9.25C9.05109 10.75 8.86032 10.671 8.71967 10.5303C8.57902 10.3897 8.5 10.1989 8.5 10ZM5.75 11C6.01522 11 6.26957 10.8946 6.45711 10.7071C6.64464 10.5196 6.75 10.2652 6.75 10C6.75 9.73478 6.64464 9.48043 6.45711 9.29289C6.26957 9.10536 6.01522 9 5.75 9C5.48478 9 5.23043 9.10536 5.04289 9.29289C4.85536 9.48043 4.75 9.73478 4.75 10C4.75 10.2652 4.85536 10.5196 5.04289 10.7071C5.23043 10.8946 5.48478 11 5.75 11ZM5.75 14.75C6.01522 14.75 6.26957 14.6446 6.45711 14.4571C6.64464 14.2696 6.75 14.0152 6.75 13.75C6.75 13.4848 6.64464 13.2304 6.45711 13.0429C6.26957 12.8554 6.01522 12.75 5.75 12.75C5.48478 12.75 5.23043 12.8554 5.04289 13.0429C4.85536 13.2304 4.75 13.4848 4.75 13.75C4.75 14.0152 4.85536 14.2696 5.04289 14.4571C5.23043 14.6446 5.48478 14.75 5.75 14.75ZM17.1 10.67L11.197 16.572C10.8531 16.9161 10.6091 17.3471 10.491 17.819L10.033 19.65C9.98745 19.8322 9.98987 20.023 10.04 20.204C10.0902 20.385 10.1864 20.5498 10.3192 20.6826C10.452 20.8153 10.617 20.9114 10.798 20.9614C10.979 21.0114 11.1699 21.0137 11.352 20.968L13.182 20.511C13.6544 20.3929 14.0858 20.1485 14.43 19.804L20.332 13.902C20.7441 13.4701 20.9709 12.8941 20.9639 12.2971C20.9569 11.7002 20.7166 11.1297 20.2945 10.7075C19.8723 10.2854 19.3018 10.0451 18.7049 10.0381C18.1079 10.0311 17.5319 10.2579 17.1 10.67Z" fill="black"/>
</g>
<defs>
<clipPath id="clip0_42_51">
<rect width="21" height="21" fill="white"/>
</clipPath>
</defs>
</svg>
