<svg width="20" height="20" viewBox="0 0 20 20" fill="none" xmlns="http://www.w3.org/2000/svg">
<path d="M19.1429 8.30768H0.857143C0.0685713 8.30768 0 9.06414 0 9.99999C0 10.9358 0.0685713 11.6923 0.857143 11.6923H19.1429C19.9314 11.6923 20 10.9358 20 9.99999C20 9.06414 19.9314 8.30768 19.1429 8.30768ZM19.1429 15.0769H0.857143C0.0685713 15.0769 0 15.8334 0 16.7692C0 17.7051 0.0685713 18.4615 0.857143 18.4615H19.1429C19.9314 18.4615 20 17.7051 20 16.7692C20 15.8334 19.9314 15.0769 19.1429 15.0769ZM0.857143 4.92307H19.1429C19.9314 4.92307 20 4.16661 20 3.23076C20 2.29491 19.9314 1.53845 19.1429 1.53845H0.857143C0.0685713 1.53845 0 2.29491 0 3.23076C0 4.16661 0.0685713 4.92307 0.857143 4.92307Z" fill="black"/>
</svg>
