<svg width="36" height="36" viewBox="0 0 36 36" fill="none" xmlns="http://www.w3.org/2000/svg">
<path d="M3.96793 33.446C2.21093 35.204 0.469928 36.312 0.0789283 35.921C-0.312072 35.53 0.796928 33.789 2.55393 32.032C4.31093 30.274 6.05193 29.166 6.44293 29.557C6.83293 29.948 5.72493 31.688 3.96793 33.446Z" fill="#C1694F"/>
<path d="M6.44289 29.558L4.32089 27.436C4.32089 27.436 3.23789 28.829 2.03689 31.066C1.13689 32.742 0.785889 33.8 0.785889 33.8L1.49289 34.507L2.19989 35.214C2.19989 35.214 3.25889 34.862 4.93389 33.963C7.17089 32.762 8.56289 31.679 8.56289 31.679L6.44289 29.558Z" fill="#FFCC4D"/>
<path d="M34.0199 1.98006C30.4849 -1.55594 15.8559 12.2771 15.1489 12.9841C14.4419 13.6911 13.8449 14.3321 14.2209 14.7081L12.0999 16.8291C9.97788 18.9511 3.61388 26.7281 4.32088 27.4351L6.44288 29.5571L8.56388 31.6781C9.27088 32.3851 17.0489 26.0211 19.1709 23.9001L21.2919 21.7791C21.6679 22.1551 22.3089 21.5571 23.0159 20.8501C23.7229 20.1441 37.5559 5.51606 34.0199 1.98006Z" fill="#31373D"/>
<path d="M23.0159 20.851C23.1009 20.767 23.3779 20.476 23.7899 20.034L15.9669 12.212C15.5249 12.623 15.2349 12.901 15.1499 12.986C14.4429 13.693 13.8459 14.334 14.2219 14.71L17.7569 18.246L21.2929 21.781C21.6679 22.155 22.3089 21.558 23.0159 20.851Z" fill="#FFCC4D"/>
<path d="M31.212 2.00097C30.285 1.07397 29.048 0.101966 27.28 0.985966C25.512 1.86997 19.967 5.42697 17.402 7.99097C16.08 9.31297 16.155 10.093 16.651 10.156C17.472 10.262 18.021 10.244 18.773 9.49297C19.523 8.74197 19.656 7.45997 19.656 7.45997C19.656 7.45997 22.706 5.11797 25.114 3.68197C27.523 2.24497 28.382 1.99997 29.224 2.84197C30.066 3.68397 31.212 2.00097 31.212 2.00097Z" fill="#FFAC33"/>
<path d="M28.8701 2.48695L33.5131 7.12995C33.8423 6.48403 34.116 5.81127 34.3311 5.11895L30.8811 1.66895C30.2541 1.85695 29.5801 2.13495 28.8701 2.48695Z" fill="#FFAC33"/>
</svg>
