<svg width="20" height="20" viewBox="0 0 20 20" fill="none" xmlns="http://www.w3.org/2000/svg">
  <g clip-path="url(#clip0_127_64)">
    <path d="M17.2009 7.85456L18.0437 7.01184C18.714 6.34144 19.0907 5.43219 19.0907 4.48411C19.0907 3.53603 18.714 2.62678 18.0437 1.95638C17.3733 1.28599 16.464 0.909363 15.5159 0.909363C14.5678 0.909363 13.6586 1.28599 12.9882 1.95638L12.1455 2.79911L4.3982 10.5446C3.87365 11.07 3.61093 11.3327 3.38547 11.6218C3.11921 11.963 2.89089 12.3321 2.70456 12.7227C2.54729 13.0537 2.43002 13.4064 2.19547 14.11L1.20093 17.0927M17.2009 7.85456C17.2009 7.85456 15.4109 7.74911 13.8309 6.16911C12.2509 4.59002 12.1464 2.79911 12.1464 2.79911M17.2009 7.85456L9.45456 15.6C8.93002 16.1246 8.66729 16.3873 8.3782 16.6127C8.03705 16.879 7.6679 17.1073 7.27729 17.2937C6.94638 17.4509 6.59456 17.5682 5.89002 17.8027L2.90729 18.7973M2.90729 18.7973L2.1782 19.0409C2.00825 19.0979 1.82577 19.1064 1.65128 19.0653C1.47679 19.0243 1.3172 18.9354 1.19045 18.8087C1.0637 18.6819 0.974812 18.5223 0.933784 18.3478C0.892757 18.1734 0.901212 17.9909 0.958199 17.8209L1.20184 17.0918L2.90729 18.7973Z" stroke="black" stroke-width="1.5"/>
  </g>
  <defs>
    <clipPath id="clip0_127_64">
      <rect width="20" height="20" fill="white"/>
    </clipPath>
  </defs>
</svg>
