<svg width="39" height="39" viewBox="0 0 39 39" fill="none" xmlns="http://www.w3.org/2000/svg">
<g clip-path="url(#clip0_172_52)">
<path d="M24.2625 10.9494L25.6755 6.99589C25.702 6.91663 25.7462 6.84442 25.8047 6.78469C25.8631 6.72495 25.9344 6.67923 26.013 6.65097C26.0917 6.62272 26.1758 6.61265 26.2589 6.62153C26.342 6.63041 26.422 6.65801 26.4929 6.70226L28.0847 7.69761C28.3905 7.88881 28.4335 8.32018 28.17 8.56821L25.1657 11.5288C24.7485 11.9225 24.0802 11.4942 24.2625 10.9494ZM12.9518 10.3858L11.9493 6.40427C11.9288 6.32334 11.8902 6.24811 11.8364 6.18423C11.7827 6.12035 11.7151 6.06949 11.6389 6.03546C11.5626 6.00143 11.4797 5.98513 11.3962 5.98776C11.3128 5.9904 11.231 6.01192 11.1571 6.05069L9.49574 6.92371C9.17547 7.09247 9.10154 7.51744 9.34283 7.78508L12.0067 10.8936C12.3943 11.3174 13.0932 10.9433 12.9518 10.3858ZM8.29949 21.2434L4.20199 21.2645C3.84484 21.2621 3.57737 21.5932 3.65768 21.9415L4.07944 23.771C4.16088 24.1243 4.55359 24.3031 4.87443 24.1368L8.55017 22.2863C9.06085 22.0197 8.87551 21.2492 8.29949 21.2434ZM27.3558 24.3674L30.3571 27.3032C30.6083 27.5583 31.0312 27.5121 31.2205 27.2094L32.2159 25.6176C32.2605 25.5459 32.2881 25.4649 32.2966 25.3809C32.3051 25.2969 32.2942 25.212 32.2648 25.1329C32.2354 25.0537 32.1883 24.9823 32.127 24.9242C32.0658 24.866 31.992 24.8227 31.9114 24.7975L27.9142 23.451C27.3668 23.2797 26.9534 23.9573 27.3558 24.3674ZM17.4334 29.8259L18.2752 33.8445C18.2922 33.9263 18.2905 34.0108 18.2701 34.0918C18.2497 34.1727 18.2113 34.248 18.1576 34.312C18.104 34.376 18.0365 34.427 17.9603 34.4611C17.8842 34.4953 17.8012 34.5117 17.7178 34.5092L15.8419 34.4517C15.7576 34.4489 15.675 34.427 15.6004 34.3875C15.5259 34.348 15.4613 34.292 15.4117 34.2237C15.362 34.1555 15.3286 34.0768 15.314 33.9937C15.2994 33.9106 15.3039 33.8253 15.3273 33.7442L16.3614 29.7831C16.5244 29.2325 17.3165 29.2628 17.4334 29.8259Z" fill="#FFC107"/>
<path d="M33.2426 16.9837L26.5197 21.9869C26.2666 22.1751 26.0688 22.4278 25.9467 22.7186C25.8247 23.0094 25.7829 23.3276 25.8258 23.64L26.9511 31.7931C27.0279 32.7272 26.0026 33.3433 25.2132 32.8351L18.7712 27.9833C18.2496 27.5904 17.5553 27.517 16.965 27.7942L9.18051 31.4309C8.31697 31.7916 7.41265 31.0072 7.65251 30.1001L10.1281 22.1867C10.2218 21.8882 10.2342 21.57 10.1639 21.2651C10.0936 20.9602 9.9432 20.6796 9.72823 20.4522L4.04044 14.4208C3.43067 13.7122 3.89731 12.6091 4.83161 12.5554L13.4226 12.4169C14.0741 12.4053 14.6667 12.0378 14.9636 11.4562L18.626 4.27238C19.1113 3.47292 20.3053 3.57737 20.6446 4.4484L23.2023 12.2713C23.3005 12.5709 23.4774 12.8388 23.7144 13.0468C23.9515 13.2548 24.24 13.3953 24.5499 13.4538L32.7847 15.0086C33.697 15.2268 33.9654 16.3912 33.2426 16.9837Z" fill="#FDD835"/>
<path d="M25.2606 18.5725L30.643 16.7467C30.9449 16.654 31.4565 16.4694 31.5699 16.9615C31.6598 17.3512 30.8974 17.7502 30.8974 17.7502L26.8576 20.4364C25.3191 21.4529 24.6823 21.3278 24.2014 20.7999C23.651 20.193 23.7185 19.0947 25.2606 18.5725Z" fill="#FFFF8D"/>
<path d="M19.1126 27.2273L23.9441 31.1471C24.1959 31.3379 24.6085 31.6918 24.8879 31.2682C25.1082 30.9326 24.5329 30.2956 24.5329 30.2956L21.934 26.4896C21.2152 25.3417 20.386 24.6606 19.5653 24.7729C18.4715 24.925 17.8675 26.0776 19.1126 27.2273Z" fill="#F4B400"/>
</g>
<defs>
<clipPath id="clip0_172_52">
<rect width="32" height="32" fill="white" transform="translate(31.1821) rotate(77.0181)"/>
</clipPath>
</defs>
</svg>
