<svg width="20" height="20" viewBox="0 0 20 20" fill="none" xmlns="http://www.w3.org/2000/svg">
<path d="M5.16165 9.06996C4.80218 8.83944 4.53902 8.46733 4.60165 8.07891C4.60785 8.04049 4.62249 8.00393 4.64451 7.97185C4.66654 7.93978 4.6954 7.91298 4.72903 7.8934C4.76265 7.87382 4.8002 7.86194 4.83897 7.85861C4.87774 7.85529 4.91676 7.8606 4.95323 7.87417C5.91007 8.22944 6.97744 8.00891 7.92271 7.11207C7.95477 7.08164 7.99397 7.05978 8.03671 7.0485C8.07945 7.03723 8.12434 7.0369 8.16724 7.04754C8.21014 7.05819 8.24966 7.07947 8.28217 7.10942C8.31468 7.13937 8.33912 7.17702 8.35323 7.21891C8.47481 7.58154 8.36586 8.07049 8.1006 8.47207C7.94365 8.70928 7.73783 8.91022 7.49693 9.06144C7.25603 9.21266 6.98561 9.31067 6.70376 9.34891C6.07323 9.44207 5.53744 9.31049 5.16165 9.06996ZM14.6074 9.06996C14.9669 8.83944 15.2306 8.46733 15.168 8.07891C15.1618 8.04049 15.1471 8.00393 15.1251 7.97185C15.1031 7.93978 15.0742 7.91298 15.0406 7.8934C15.007 7.87382 14.9694 7.86194 14.9307 7.85861C14.8919 7.85529 14.8529 7.8606 14.8164 7.87417C13.8595 8.22944 12.7922 8.00891 11.8469 7.11207C11.8149 7.08164 11.7756 7.05978 11.7329 7.0485C11.6902 7.03723 11.6453 7.0369 11.6024 7.04754C11.5595 7.05819 11.52 7.07947 11.4875 7.10942C11.4549 7.13937 11.4305 7.17702 11.4164 7.21891C11.2943 7.58154 11.4038 8.07049 11.669 8.47207C11.8259 8.70921 12.0316 8.91012 12.2725 9.06134C12.5133 9.21255 12.7836 9.3106 13.0653 9.34891C13.6964 9.44207 14.2317 9.31049 14.6074 9.06996Z" fill="black"/>
<path fill-rule="evenodd" clip-rule="evenodd" d="M14.8727 13.6842C13.9674 11.8095 12.1253 10.5263 10 10.5263C7.87478 10.5263 6.03267 11.8095 5.12741 13.6842C4.88057 14.1947 5.29372 14.7368 5.86109 14.7368H14.139C14.7064 14.7368 15.1195 14.1947 14.8727 13.6842ZM10 11.5789C11.5106 11.5789 12.87 12.3974 13.6727 13.6842H6.32741C7.13057 12.3974 8.48951 11.5789 10 11.5789Z" fill="black"/>
<path fill-rule="evenodd" clip-rule="evenodd" d="M19.4737 9.99999C19.4737 15.2321 15.2322 19.4737 10.0001 19.4737C4.76795 19.4737 0.526367 15.2321 0.526367 9.99999C0.526367 4.76789 4.76795 0.526306 10.0001 0.526306C15.2322 0.526306 19.4737 4.76789 19.4737 9.99999ZM18.4211 9.99999C18.4211 14.651 14.6511 18.421 10.0001 18.421C5.349 18.421 1.579 14.651 1.579 9.99999C1.579 5.34894 5.349 1.57894 10.0001 1.57894C14.6511 1.57894 18.4211 5.34894 18.4211 9.99999Z" fill="black"/>
</svg>
