<svg width="16" height="18" viewBox="0 0 16 18" fill="none" xmlns="http://www.w3.org/2000/svg">
<g clip-path="url(#clip0_42_45)">
<path d="M0.291727 4.13919C0.291727 3.75585 0.579227 3.44419 0.934227 3.44419H3.15506C3.59589 3.43169 3.98506 3.12919 4.13506 2.68085L4.16006 2.60169L4.25589 2.29169C4.31423 2.10169 4.36506 1.93585 4.43673 1.78752C4.71839 1.20252 5.24006 0.796687 5.84256 0.69252C5.99589 0.666687 6.15673 0.666687 6.34256 0.666687H9.24089C9.42673 0.666687 9.58839 0.666687 9.74089 0.69252C10.3434 0.796687 10.8659 1.20252 11.1467 1.78752C11.2184 1.93585 11.2692 2.10169 11.3276 2.29169L11.4234 2.60169L11.4484 2.68085C11.5984 3.12919 12.0651 3.43252 12.5067 3.44419H14.6484C15.0042 3.44419 15.2917 3.75502 15.2917 4.13919C15.2917 4.52252 15.0042 4.83335 14.6492 4.83335H0.933393C0.578393 4.83335 0.291727 4.52252 0.291727 4.13919ZM7.67256 17.3334H8.32839C10.5842 17.3334 11.7117 17.3334 12.4459 16.6142C13.1792 15.8942 13.2542 14.7142 13.4042 12.355L13.6209 8.95419C13.7026 7.67335 13.7434 7.03335 13.3751 6.62752C13.0067 6.22169 12.3859 6.22169 11.1426 6.22169H4.85839C3.61589 6.22169 2.99423 6.22169 2.62589 6.62752C2.25839 7.03335 2.29923 7.67335 2.38006 8.95419L2.59673 12.3542C2.74673 14.715 2.82173 15.8942 3.55506 16.6142C4.28756 17.3334 5.41673 17.3334 7.67256 17.3334Z" fill="black"/>
</g>
<defs>
<clipPath id="clip0_42_45">
<rect width="16" height="18" fill="white"/>
</clipPath>
</defs>
</svg>
